<svg width="16" height="16" viewBox="0 0 16 16" fill="none" xmlns="http://www.w3.org/2000/svg">
<g clip-path="url(#clip0_873_178)">
<path d="M3.99996 6.66663C3.26663 6.66663 2.66663 7.26663 2.66663 7.99996C2.66663 8.73329 3.26663 9.33329 3.99996 9.33329C4.73329 9.33329 5.33329 8.73329 5.33329 7.99996C5.33329 7.26663 4.73329 6.66663 3.99996 6.66663ZM12 6.66663C11.2666 6.66663 10.6666 7.26663 10.6666 7.99996C10.6666 8.73329 11.2666 9.33329 12 9.33329C12.7333 9.33329 13.3333 8.73329 13.3333 7.99996C13.3333 7.26663 12.7333 6.66663 12 6.66663ZM7.99996 6.66663C7.26663 6.66663 6.66663 7.26663 6.66663 7.99996C6.66663 8.73329 7.26663 9.33329 7.99996 9.33329C8.73329 9.33329 9.33329 8.73329 9.33329 7.99996C9.33329 7.26663 8.73329 6.66663 7.99996 6.66663Z" fill="white"/>
</g>
<defs>
<clipPath id="clip0_873_178">
<rect width="16" height="16" fill="white"/>
</clipPath>
</defs>
</svg>
